# xmcd
#
# Track frame offsets:
#	150
#	13290
#	25378
#	44082
#	60942
#	79164
#	96379
#	110621
#	131476
#	145691
#	158067
#	177050
#	189006
#
# Disc length: 2994 seconds
#
# Revision: 0
# Processed by: cddbd v1.5.2PL0 Copyright (c) Steve Scherf et al.
# Submitted via: EZCDAudioConverter 1.0.4.1
#
DISCID=a70bb00d
DTITLE=Quinn Sullivan - Getting There
DYEAR=2013
DGENRE=Blues
TTITLE0=Quinn Sullivan` - Checkin' Out
TTITLE1=Quinn Sullivan - Catch a Groove
TTITLE2=Quinn Sullivan - Getting There
TTITLE3=Quinn Sullivan - World in Change
TTITLE4=Quinn Sullivan - Mr. Gloom
TTITLE5=Quinn Sullivan - I Know I Know
TTITLE6=Quinn Sullivan - Rock Hard
TTITLE7=Quinn Sullivan - She Gets Me
TTITLE8=Quinn Sullivan - Cyclone
TTITLE9=Quinn Sullivan - Like Your Love
TTITLE10=Quinn Sullivan - 11 Things I Won't Forget
TTITLE11=Quinn Sullivan - End of the Day
TTITLE12=Quinn Sullivan - Got to Get Better in a Little While
EXTD=
EXTT0=
EXTT1=
EXTT2=
EXTT3=
EXTT4=
EXTT5=
EXTT6=
EXTT7=
EXTT8=
EXTT9=
EXTT10=
EXTT11=
EXTT12=
PLAYORDER=
